<?xml version="1.0" encoding="utf-8"?>
<!-- Generator: Adobe Illustrator 21.1.0, SVG Export Plug-In . SVG Version: 6.00 Build 0)  -->
<svg version="1.1" id="Слой_1" xmlns="http://www.w3.org/2000/svg" xmlns:xlink="http://www.w3.org/1999/xlink" x="0px" y="0px"
	 viewBox="0 0 771 167.8" style="enable-background:new 0 0 771 167.8;" xml:space="preserve">
<style type="text/css">
	.st0{fill:#FF666E;}
</style>
<g id="Слой_x0020_1">
	<path class="st0" d="M1,129.5C1,105,18.8,92.8,54.4,92.8c8.4,0,16.7,0.8,25.1,2.4v-9.3c0-11-8-16.5-23.8-16.5
		c-13.4,0-28.4,2-44.8,5.8V50.6c16.4-3.9,31.3-5.8,44.8-5.8c36.5,0,54.8,13.5,54.8,40.5v82.5h-18l-11-11c-10.7,7.3-22.5,11-35.4,11
		C16,167.8,1,155,1,129.5L1,129.5z M79.5,116.2c-7.8-1.6-16.2-2.4-25.1-2.4c-14.9,0-22.4,5.1-22.4,15.2c0,11,6.2,16.4,18.8,16.4
		c10.3,0,19.9-3.2,28.7-9.6V116.2L79.5,116.2z M170.9,139.3c7.1,2.3,15.3,3.4,24.7,3.4c18.7,0,28.1-13.2,28.1-39.7
		c0-21.6-8.1-32.5-24.3-32.5c-10.4,0-20,2.1-28.6,6.4L170.9,139.3L170.9,139.3z M139.8,0.2h31.1v53.9c9.3-6.2,19.6-9.4,31-9.4
		c35,0,52.5,19.7,52.5,59c0,42.7-20,64-60.1,64c-16.9,0-35-1.7-54.5-5V0.2L139.8,0.2z M308.9,0.2v24.6h-31.1V0.2H308.9z M308.9,44.8
		v123h-31.1v-123C277.8,44.8,308.9,44.8,308.9,44.8z M332.3,129.5c0-24.4,17.8-36.7,53.4-36.7c8.4,0,16.7,0.8,25.1,2.4v-9.3
		c0-11-8-16.5-23.8-16.5c-13.4,0-28.4,2-44.7,5.8V50.6c16.4-3.9,31.3-5.8,44.7-5.8c36.5,0,54.8,13.5,54.8,40.5v82.5h-18l-11-11
		c-10.7,7.3-22.5,11-35.3,11C347.3,167.8,332.3,155,332.3,129.5L332.3,129.5z M410.8,116.2c-7.8-1.6-16.2-2.4-25.1-2.4
		c-14.9,0-22.4,5.1-22.4,15.2c0,11,6.2,16.4,18.8,16.4c10.3,0,19.9-3.2,28.7-9.6L410.8,116.2L410.8,116.2z M469.3,24.9h23l4.7,19.9
		h30.9v24.6h-27.5v56.6c0,11.5,5,17.2,14.9,17.2h12.6v24.6h-27.6c-20.6,0-30.9-11-30.9-33.1L469.3,24.9L469.3,24.9z M600.9,44.8
		c37.3,0,56,19,56,57.1c0,5.1-0.4,10.2-1.1,15.2h-81.7c0,17.4,12.7,26,38.2,26c12.4,0,24.8-1.2,37.3-3.5v24.6
		c-10.9,2.4-24.1,3.5-39.6,3.5c-44.6,0-66.9-21-66.9-62.9C543.1,64.8,562.4,44.8,600.9,44.8L600.9,44.8z M574.2,95.6h52.5v-0.9
		c0-17-8.6-25.6-25.8-25.6C584.5,69.1,575.6,78,574.2,95.6z M771,164.2c-10.2,2.4-20.7,3.5-31.6,3.5c-43.7,0-65.6-21.3-65.6-63.9
		c0-39.4,21.9-59.1,65.6-59.1c10.9,0,21.5,1.2,31.6,3.5v24.6c-10.2-2.4-19.9-3.5-29.3-3.5c-24.6,0-36.9,11.5-36.9,34.5
		c0,26.2,12.3,39.3,36.9,39.3c9.4,0,19.1-1.2,29.3-3.5V164.2z"/>
</g>
</svg>
